# xmcd
#
# Track frame offsets: 
#        150
#        14670
#        28156
#        47024
#        60996
#        71394
#        83591
#        98293
#        115862
#        133137
#        143249
#        160884
#        177618
#        185561
#
# Disc length: 2665 seconds
#
# Revision: 0
# Processed by: cddbd v1.5.1PL0 Copyright (c) Steve Scherf et al.
# Submitted via: ExactAudioCopy v0.95a5
#
DISCID=ba0a670e
DTITLE=Tim Stafford - Endless Line
DYEAR=2004
DGENRE=Bluegrass
TTITLE0=Bad Reputation
TTITLE1=Cold Harbor
TTITLE2=Danville Girl
TTITLE3=Holiday On The Mission Street
TTITLE4=If I Had The Money...
TTITLE5=If Only For A Day
TTITLE6=Indigo Blue
TTITLE7=Kid
TTITLE8=Mamma Llama
TTITLE9=Methodist Preacher
TTITLE10=Obsession
TTITLE11=Rain
TTITLE12=Reason
TTITLE13=Rider On A Endless Line
EXTD=
EXTT0=
EXTT1=
EXTT2=
EXTT3=
EXTT4=
EXTT5=
EXTT6=
EXTT7=
EXTT8=
EXTT9=
EXTT10=
EXTT11=
EXTT12=
EXTT13=
PLAYORDER=
